<?xml version="1.0" encoding="UTF-8"?>
<!DOCTYPE svg PUBLIC "-//W3C//DTD SVG 1.1//EN" "http://www.w3.org/Graphics/SVG/1.1/DTD/svg11.dtd">
<svg xmlns="http://www.w3.org/2000/svg" version="1.1" width="300px" height="71px" style="shape-rendering:geometricPrecision; text-rendering:geometricPrecision; image-rendering:optimizeQuality; fill-rule:evenodd; clip-rule:evenodd" xmlns:xlink="http://www.w3.org/1999/xlink">
<g><path style="opacity:0.873" fill="#fefefe" d="M 41.5,30.5 C 49.1312,36.1021 49.4645,42.2688 42.5,49C 35.3822,51.4436 28.7155,50.6103 22.5,46.5C 24.0761,44.0207 25.0761,41.354 25.5,38.5C 26.5,38.5 27.5,38.5 28.5,38.5C 23.5094,33.3752 23.1761,27.8752 27.5,22C 33.4059,18.8461 39.4059,18.6794 45.5,21.5C 60.1218,20.3503 74.7885,20.1836 89.5,21C 92.8519,22.5282 95.1853,25.0282 96.5,28.5C 97.8045,25.3623 99.9712,23.029 103,21.5C 103.402,20.1279 103.902,18.7946 104.5,17.5C 107.086,16.52 109.753,16.1866 112.5,16.5C 112.833,20.5 113.167,20.5 113.5,16.5C 116.5,16.5 119.5,16.5 122.5,16.5C 122.528,18.5824 121.861,20.4157 120.5,22C 123.473,23.7648 125.64,26.2648 127,29.5C 127.498,26.5184 127.665,23.5184 127.5,20.5C 140.837,20.3334 154.171,20.5001 167.5,21C 175.9,26.0787 176.567,32.0787 169.5,39C 172.093,41.7662 174.093,44.9328 175.5,48.5C 171.541,49.6599 167.541,49.8265 163.5,49C 162.206,46.913 161.039,44.7463 160,42.5C 159.503,44.8098 159.337,47.1432 159.5,49.5C 148.833,49.5 138.167,49.5 127.5,49.5C 127.665,46.1501 127.498,42.8168 127,39.5C 124.843,46.984 119.843,50.6506 112,50.5C 101.978,50.4796 96.3111,45.4796 95,35.5C 93.8333,36.6667 92.6667,37.8333 91.5,39C 93.625,42.0823 95.625,45.2489 97.5,48.5C 93.2172,49.4922 88.8839,49.8256 84.5,49.5C 82.348,40.4737 81.348,40.4737 81.5,49.5C 77.8333,49.5 74.1667,49.5 70.5,49.5C 70.6663,42.825 70.4996,36.1583 70,29.5C 68.3005,30.4061 66.4672,30.7394 64.5,30.5C 64.5,36.8333 64.5,43.1667 64.5,49.5C 60.5,49.5 56.5,49.5 52.5,49.5C 52.5,43.1667 52.5,36.8333 52.5,30.5C 48.1694,31.5489 46.0027,29.8822 46,25.5C 45.8455,28.5246 44.3455,30.1913 41.5,30.5 Z M 41.5,30.5 C 39.5714,30.7692 37.9047,30.2692 36.5,29C 38.5348,28.4014 40.2015,28.9014 41.5,30.5 Z M 81.5,29.5 C 82.5,29.5 83.5,29.5 84.5,29.5C 84.5,30.5 84.5,31.5 84.5,32.5C 83.5,32.5 82.5,32.5 81.5,32.5C 81.5,31.5 81.5,30.5 81.5,29.5 Z M 138.5,30.5 C 141.625,29.5206 144.958,29.1872 148.5,29.5C 148.5,33.1667 148.5,36.8333 148.5,40.5C 145.15,40.665 141.817,40.4983 138.5,40C 141.482,39.502 144.482,39.3354 147.5,39.5C 147.5,36.5 147.5,33.5 147.5,30.5C 144.5,30.5 141.5,30.5 138.5,30.5 Z M 159.5,29.5 C 160.5,29.5 161.5,29.5 162.5,29.5C 162.5,30.5 162.5,31.5 162.5,32.5C 161.5,32.5 160.5,32.5 159.5,32.5C 159.5,31.5 159.5,30.5 159.5,29.5 Z M 109.5,30.5 C 115.75,30.8821 117.417,33.7154 114.5,39C 107.416,39.475 105.749,36.6417 109.5,30.5 Z M 28.5,38.5 C 30.9267,38.523 33.26,39.023 35.5,40C 32.7233,41.9135 30.39,41.4135 28.5,38.5 Z"/></g>
<g><path style="opacity:0.618" fill="#fefefe" d="M 211.5,16.5 C 212.833,16.5 214.167,16.5 215.5,16.5C 215.5,27.5 215.5,38.5 215.5,49.5C 214.167,49.5 212.833,49.5 211.5,49.5C 211.5,38.5 211.5,27.5 211.5,16.5 Z"/></g>
<g><path style="opacity:0.642" fill="#fefefe" d="M 240.5,16.5 C 241.833,16.5 243.167,16.5 244.5,16.5C 244.334,20.8461 244.501,25.1794 245,29.5C 251.596,25.8195 256.262,27.4862 259,34.5C 259.767,38.5935 259.434,42.5935 258,46.5C 254.21,50.8541 249.877,51.5207 245,48.5C 243.644,49.3802 242.144,49.7135 240.5,49.5C 240.5,38.5 240.5,27.5 240.5,16.5 Z M 247.5,31.5 C 253.091,31.0904 255.758,33.7571 255.5,39.5C 255.394,43.3861 253.56,46.0528 250,47.5C 245.061,44.9477 243.395,40.9477 245,35.5C 245.662,34.0161 246.496,32.6828 247.5,31.5 Z"/></g>
<g><path style="opacity:0.594" fill="#fefefe" d="M 190.5,20.5 C 191.5,20.5 192.5,20.5 193.5,20.5C 193.5,30.1667 193.5,39.8333 193.5,49.5C 192.5,49.5 191.5,49.5 190.5,49.5C 190.5,39.8333 190.5,30.1667 190.5,20.5 Z"/></g>
<g><path style="opacity:0.673" fill="#fefefe" d="M 224.5,27.5 C 228.516,26.8999 232.016,27.8999 235,30.5C 235.208,36.551 235.708,42.551 236.5,48.5C 233.192,48.3306 229.858,48.9972 226.5,50.5C 220.137,49.9616 217.971,46.6282 220,40.5C 220.374,39.5838 220.874,38.7504 221.5,38C 225.06,36.7633 228.727,36.2633 232.5,36.5C 232.703,34.6096 232.037,33.1096 230.5,32C 227.77,31.2716 225.103,31.4383 222.5,32.5C 221.571,31.3112 221.238,29.9778 221.5,28.5C 222.791,28.7373 223.791,28.404 224.5,27.5 Z M 227.5,39.5 C 229.167,39.5 230.833,39.5 232.5,39.5C 232.418,43.5848 230.418,46.2515 226.5,47.5C 223.911,46.2778 223.077,44.2778 224,41.5C 225.302,40.9152 226.469,40.2485 227.5,39.5 Z"/></g>
<g><path style="opacity:0.598" fill="#fefefe" d="M 265.5,27.5 C 267.857,27.3367 270.19,27.5034 272.5,28C 273.973,28.7096 274.64,29.8762 274.5,31.5C 271.813,31.3359 269.146,31.5026 266.5,32C 266.043,32.414 265.709,32.914 265.5,33.5C 268.718,35.6994 271.884,38.0328 275,40.5C 276.058,49.0941 272.225,52.2607 263.5,50C 261.503,48.8469 261.17,47.3469 262.5,45.5C 266.236,48.6072 269.236,48.1072 271.5,44C 268.446,41.0538 265.279,38.2205 262,35.5C 261.535,32.0429 262.702,29.3762 265.5,27.5 Z"/></g>
</svg>
